<?xml version="1.0" encoding="UTF-8"?>
<svg id="Layer_2" data-name="Layer 2" xmlns="http://www.w3.org/2000/svg" viewBox="0 0 184.07 94.15">
  <defs>
    <style>
      .cls-1 {
        fill: #ff4040;
      }
    </style>
  </defs>
  <g id="Layer_1-2" data-name="Layer 1">
    <path class="cls-1" d="M183.99.69c.06-.84-5.58-.68-8.47-.68-11.38.01-25.24,0-36.96,0-2.87,0-5.62,0-8.34,0-4.25.04-5.36.33-7.56,3.23-1.16,1.53-2.22,3.05-3.39,4.7-7.36,10.37-15.79,22.24-22.99,32.38-4.44,6.41-4.66,6-12.45,6.01-7.32,0-16.58,0-24.56,0-6.57,0-13,0-19.39,0-4.27-.04-7.35-.21-9.52,3.26-6.41,8.84-12.91,18.17-19.31,27.12-2.56,3.61-4.95,6.97-6.86,9.66-2.78,3.98-4.58,6.19-4.12,7.03.37.79,2.66.7,6.65.72,4.45.01,8.78,0,14.3,0,10.82,0,22.06.02,32.8,0,5.64.31,6.7-1.96,9.48-5.86,3.64-5.12,7.31-10.3,11.04-15.55,4.37-6.16,9.42-13.26,13.42-18.9,4.44-6.41,4.66-6,12.45-6.01,13,0,28.14,0,41.41,0,1.59,0,3.06,0,4.52-.01,4.25-.04,5.35-.36,7.53-3.25,1.89-2.54,3.66-5.1,5.58-7.78,6.5-9.14,14.15-19.94,20.47-28.82,2.85-4.08,4.71-6.35,4.29-7.2l-.02-.04Z"/>
  </g>
</svg>