<?xml version="1.0" encoding="UTF-8"?>
<svg id="Layer_2" data-name="Layer 2" xmlns="http://www.w3.org/2000/svg" xmlns:xlink="http://www.w3.org/1999/xlink" viewBox="0 0 1083.85 1083.85">
  <defs>
    <style>
      .cls-1 {
        fill: none;
      }

      .cls-2 {
        clip-path: url(#clippath);
      }

      .cls-3 {
        fill: #fff;
      }

      .cls-4 {
        fill: #ed1164;
      }
    </style>
    <clipPath id="clippath">
      <rect class="cls-1" width="1083.85" height="1083.85"/>
    </clipPath>
  </defs>
  <g id="Layer_2-2" data-name="Layer 2">
    <g class="cls-2">
      <g>
        <polygon class="cls-4" points="995.29 1.92 872.84 227.65 259.05 227.65 381.5 1.92 292.94 1.92 0 541.92 88.56 541.92 211.01 316.2 824.8 316.2 702.35 541.92 790.91 541.92 1083.85 1.92 995.29 1.92"/>
        <polygon class="cls-3" points="88.5 921.72 294.53 541.92 206.03 541.92 44.25 840.12 0 921.8 44.25 1003.4 84.53 1077.65 84.53 1081.92 86.85 1081.92 175.43 1081.92 603.98 1081.92 652.05 993.35 127.35 993.35 88.5 921.72"/>
        <polygon class="cls-3" points="1588.49 541.92 1466.02 767.67 938.31 767.67 895.26 688.32 974.69 541.92 886.11 541.92 851.01 606.72 806.76 688.25 851.01 769.92 897.81 856.17 986.31 856.17 1418.01 856.17 1343.6 993.35 815.24 993.35 767.16 1081.92 1295.55 1081.92 1354.19 1081.92 1384.1 1081.92 1677.04 541.92 1588.49 541.92"/>
      </g>
    </g>
  </g>
</svg>