<?xml version="1.0" encoding="utf-8"?>
<!-- Generator: Adobe Illustrator 25.0.1, SVG Export Plug-In . SVG Version: 6.00 Build 0)  -->
<svg version="1.1" id="Layer_1" xmlns="http://www.w3.org/2000/svg" xmlns:xlink="http://www.w3.org/1999/xlink" x="0px" y="0px"
	 viewBox="0 0 103 79" style="enable-background:new 0 0 103 79;" xml:space="preserve">
<style type="text/css">
	.st0{fill:#F8C9DF;}
</style>
<g>
	<path class="st0" d="M66.3,42.3L66.3,42.3C66.1,42.1,66.1,42,66,42c0-0.1-0.1-0.1-0.1-0.1c-0.1-0.1-0.1-0.1-0.2-0.2
		c-0.1-0.1-0.1-0.1-0.2-0.2l-0.1-0.1l0,0c-0.1,0-0.2-0.1-0.3-0.1c0,0-0.1,0-0.1-0.1c-0.1,0-0.3-0.1-0.4-0.1s-0.1,0-0.2,0
		c-0.3,0-0.5,0-0.8,0.1c-0.1,0-0.2,0.1-0.3,0.1l0,0c0,0-0.1,0-0.1,0.1c-0.1,0.1-0.2,0.1-0.3,0.2c-0.1,0-0.1,0.1-0.1,0.1
		c-0.1,0.1-0.1,0.1-0.2,0.2c-0.1,0.1-0.1,0.2-0.2,0.2l-0.1,0.1L58.2,50c-0.6,1.1-0.2,2.5,0.9,3c0.3,0.2,0.7,0.3,1.1,0.3
		c0.8,0,1.6-0.4,2-1.2l2.2-4.1l2.2,4.1c0.4,0.8,1.2,1.2,2,1.2c0.4,0,0.7-0.1,1.1-0.3c1.1-0.6,1.5-2,0.9-3L66.3,42.3z"/>
	<path class="st0" d="M40.6,42.3L40.6,42.3c-0.2-0.2-0.2-0.3-0.3-0.3c0-0.1-0.1-0.1-0.2-0.2c-0.1-0.1-0.1-0.1-0.2-0.2
		c-0.1-0.1-0.2-0.1-0.2-0.2l-0.1-0.1l0,0c-0.1-0.1-0.2-0.1-0.3-0.1h-0.1c-0.1,0-0.3-0.1-0.4-0.1h-0.1c-0.3,0-0.6,0-0.9,0.1
		c-0.1,0-0.2,0.1-0.3,0.1l0,0l-0.1,0.1c-0.1,0.1-0.2,0.1-0.2,0.2c-0.1,0-0.1,0.1-0.2,0.2c-0.1,0.1-0.1,0.1-0.2,0.2
		c-0.1,0.1-0.1,0.2-0.2,0.2l-0.1,0.1l-4,7.7c-0.6,1.1-0.2,2.5,0.9,3c0.3,0.2,0.7,0.3,1.1,0.3c0.8,0,1.6-0.4,2-1.2l2.2-4.1l2.2,4.1
		c0.4,0.8,1.2,1.2,2,1.2c0.4,0,0.7-0.1,1.1-0.3c1.1-0.6,1.5-2,0.9-3L40.6,42.3z"/>
	<path class="st0" d="M101.1,55.6c1.1,0,1.9-0.9,1.9-1.9s-0.9-1.9-1.9-1.9H84.6v-3.9h16.5c1.1,0,1.9-0.9,1.9-1.9s-0.9-1.9-1.9-1.9
		H84.6V17.4v-0.1c0-0.1,0-0.2,0-0.2c0-0.1,0-0.1,0-0.2s0-0.1-0.1-0.2c0-0.1-0.1-0.2-0.1-0.2v-0.1L76.1,1.2L76,1.1
		c0-0.1-0.1-0.2-0.1-0.3s-0.1-0.1-0.2-0.2s-0.1-0.1-0.2-0.2s-0.2-0.1-0.3-0.2l-0.1-0.1l0,0C75,0,74.9,0,74.8,0c0,0,0,0-0.1,0
		c0,0-0.2,0-0.3,0h-0.1c-0.1,0-0.3,0-0.4,0s-0.2,0-0.3,0.1h-0.1c-0.1,0-0.2,0.1-0.3,0.1l0,0c0,0-0.1,0-0.1,0.1
		c-0.1,0.1-0.2,0.1-0.3,0.2c-0.1,0-0.1,0.1-0.1,0.1c-0.1,0.1-0.1,0.1-0.2,0.2S72.4,1,72.3,1l-0.1,0.1L63.1,18H51.5H39.9L30.8,1.2
		l-0.1-0.1c-0.1-0.1-0.1-0.2-0.2-0.2c0-0.1-0.1-0.1-0.2-0.2l-0.1-0.1c-0.1-0.1-0.2-0.1-0.3-0.2c0,0-0.1,0-0.1-0.1l0,0
		c-0.1-0.1-0.2-0.1-0.4-0.1c0,0,0,0-0.1,0C29.3,0,29.2,0,29.1,0H29c-0.3,0-0.6,0-0.9,0.1c-0.1,0-0.2,0.1-0.3,0.1l0,0l-0.1,0.1
		c-0.1,0.1-0.2,0.1-0.2,0.2c-0.1,0-0.1,0.1-0.2,0.2s-0.1,0.1-0.2,0.2C27,0.9,27,1,26.9,1.1l-0.1,0.1l-8.2,15.1v0.1
		c0,0.1-0.1,0.1-0.1,0.2s0,0.1-0.1,0.2c0,0.1,0,0.1,0,0.2s0,0.2,0,0.2v0.1V44H1.9c-1,0-1.9,0.9-1.9,1.9s0.9,1.9,1.9,1.9h16.5v3.9
		H1.9c-1.1,0-1.9,0.9-1.9,1.9s0.9,1.9,1.9,1.9h16.5v3.9H1.9c-1.1,0-1.9,0.9-1.9,1.9s0.9,1.9,1.9,1.9h17.6l0.1,0.1l30.8,15.4l0,0
		c0.1,0.1,0.3,0.1,0.4,0.2h0.1c0.1,0,0.3,0.1,0.4,0.1l0,0l0,0l0,0l0,0c0.2,0,0.3,0,0.4-0.1h0.1c0.1,0,0.3-0.1,0.4-0.2l0,0L83,63.3
		l0.1-0.1h17.6c1.1,0,1.9-0.9,1.9-1.9s-0.9-1.9-1.9-1.9H84.6v-3.9L101.1,55.6L101.1,55.6z M51.5,74.3L22.9,60V18l5.9-11l7.7,14.3
		c0.4,0.7,1.2,1.2,2,1.2h12.9h12.9c0.8,0,1.6-0.5,2-1.2L74.1,7L80,18v42L51.5,74.3z"/>
</g>
</svg>
