<?xml version="1.0" encoding="utf-8"?>
<!-- Generator: Adobe Illustrator 24.1.2, SVG Export Plug-In . SVG Version: 6.00 Build 0)  -->
<svg version="1.1" id="Layer_2_1_" xmlns="http://www.w3.org/2000/svg" xmlns:xlink="http://www.w3.org/1999/xlink" x="0px" y="0px"
	 viewBox="0 0 292.6 251.1" style="enable-background:new 0 0 292.6 251.1;" xml:space="preserve">
<style type="text/css">
	.st0{fill:#FF004B;}
</style>
<g>
	<polygon class="st0" points="83.8,138 83.8,1 48,1 38.9,1 -0.3,1 -0.3,133.6 -0.2,133.6 -0.2,199.2 -0.3,199.2 -0.3,199.4 
		-0.2,199.4 38.7,252 83.7,252 83.8,252 146,168 83.8,168 	"/>
	<polygon class="st0" points="253.4,83.7 230.1,83.7 208.3,83.7 208.1,84 146,167.9 146,168 146,168 208.3,168 208.3,220.5 
		208.3,252 242.7,252 253.2,252 292.3,252 292.3,199.8 292.3,199.7 292.3,167.9 292.3,136.5 292.3,136.4 	"/>
</g>
</svg>
