<?xml version="1.0" encoding="UTF-8"?>
<svg id="Layer_2" data-name="Layer 2" xmlns="http://www.w3.org/2000/svg" viewBox="0 0 1064.27 385.9">
  <defs>
    <style>
      .cls-1 {
        fill: #ff4040;
      }
    </style>
  </defs>
  <g id="Layer_1-2" data-name="Layer 1">
    <g>
      <path class="cls-1" d="M318.27,295.97c-2.76,1.43-5.05,3.97-7.91,7.76-4.66,6.3-10.16,14.19-14.89,20.76-4.64,6.21-9.01,14.27-17.29,14.94-9.65.92-19.84.28-29.6.46-4,0-7.66,0-10.62-.03-4.77-.06-7.67-.24-8.71-.97-1.33-1.06.17-2.67.83-3.86,21.91-30.89,71.48-100.16,90.4-126.77,3.74-5,2.1-5.48-4.42-5.71-11.5-.11-32.24-.24-43.9.07-5.16.37-6.39.71-8.8,3.86-19.66,28.41-111.64,154.59-126.2,177.88.16.9,1.77,1.24,5.38,1.39,10.53.27,24.17.04,35.72.11,16.97,0,33.69,0,50.93,0,24.27-.08,48.17.18,72.14-.12,6.22-.12,9.71-1.23,13.06-5.99,12.62-17.37,43.2-60.54,55.42-77.59,1.3-1.86,2.31-3.35,2.82-4.49.42-.93.51-1.63.19-2.15-.88-1.06-2.43-1.17-4.06-1.34-2.56-.21-5.36-.23-8.06-.24-8.27-.01-20.17-.02-28.46,0-4.69.11-9.72-.09-13.89,1.98l-.1.05Z"/>
      <path class="cls-1" d="M704.87,295.97c-2.76,1.43-5.05,3.97-7.91,7.76-4.66,6.3-10.16,14.19-14.89,20.76-4.64,6.21-9.01,14.27-17.29,14.94-9.65.92-19.84.28-29.6.46-4,0-7.66,0-10.62-.03-4.77-.06-7.67-.24-8.71-.97-1.33-1.06.17-2.67.83-3.86,21.91-30.89,71.48-100.16,90.4-126.77,3.74-5,2.1-5.48-4.42-5.71-11.5-.11-32.24-.24-43.9.07-5.16.37-6.39.71-8.8,3.86-19.66,28.41-111.64,154.59-126.2,177.88.16.9,1.77,1.24,5.38,1.39,10.53.27,24.17.04,35.72.11,16.97,0,33.69,0,50.93,0,24.27-.08,48.17.18,72.14-.12,6.22-.12,9.71-1.23,13.06-5.99,12.62-17.37,43.2-60.54,55.42-77.59,1.3-1.86,2.31-3.35,2.82-4.49.42-.93.51-1.63.19-2.15-.88-1.06-2.43-1.17-4.06-1.34-2.56-.21-5.36-.23-8.06-.24-8.27-.01-20.17-.02-28.46,0-4.69.11-9.72-.09-13.89,1.98l-.1.05Z"/>
      <path class="cls-1" d="M481.12,1.6c-3.07,1.3-5.2,3.89-8.32,8.17-3.37,4.68-6.22,8.76-9.95,14-7.39,10.42-15.05,21.24-22.44,31.65-5.98,8.88-9.84,11.79-19.47,12.25-7.63.42-15.58.17-23.31.23-7.72-.26-14.96.76-18.73-2.07-1.93-1.92,1.08-5.94,2.62-8.28,3.39-4.88,6.99-9.89,10.74-15.2,6.55-9.25,15.17-21.39,21.14-29.82,3.74-5.32,6.17-8.71,5.46-10.42-1.36-2.63-9.1-1.8-11.99-2.06-9.29,0-21.4-.04-30.55,0-6.13.35-11.65-.66-14.64,3.63-19.71,28.72-107.29,149.08-125.59,178.26.28,1.01,2.51,1.31,7.29,1.42,11.75.1,25.01.11,36.92,0,12.07.06,14.19-2.98,20.95-12.66,7.68-10.81,17.06-24.06,24.95-35.19,3.43-4.78,6.31-9.05,9.52-13.26,3.44-4.76,8-7.35,14.11-7.94,7.82-.82,19.05-.33,27.77-.46,5.42.22,13.99-.6,17,2.07.4.47.54,1.03.48,1.65-.2,2.33-3.23,6.27-7,11.65-11.01,15.99-25.99,35.67-34.63,49.52-1.44,2.74.14,3.97,2.92,4.26,2.53.33,5.44.38,8.14.4,9.3,0,21.78.05,31.08,0,3.86-.03,10.04-.14,11.8-1.2,21.11-25.01,105.71-149.01,126.31-176.49.91-1.3,1.64-2.33,1.97-3.12.26-.62.28-1.1-.07-1.45-.91-.86-2.48-.73-3.98-.93-1.75-.08-3.64-.17-5.56-.16-8.74-.08-20.32,0-29.72-.02-5.01.12-10.5-.27-15.12,1.52l-.09.04Z"/>
      <path class="cls-1" d="M579.64.56c-2.06.38-3.17,1.5-4.32,3.09-28.87,40.67-103.28,144.69-126.22,177.49-1.65,2.79,5.09,2.02,7,2.27,4.14.06,10.31.03,17,.04,4.81,0,9.8,0,14.18,0,6.05,0,10.73.02,13.7-.18,2.89-.19,4.35-.61,5.48-1.54,17.51-23.79,109.06-151.99,128.14-180.12.44-1.36-4.01-1.46-5.79-1.5-10.61-.18-23.65,0-35.56-.07-4.83.05-11.58-.04-13.55.5h-.07Z"/>
      <path class="cls-1" d="M556.1,203.63c-3.54,1.24-5.49,4.34-7.73,7.33-11.89,16.57-40.74,57.16-53.99,75.58-1.52,2.05-3.02,4.06-4.89,5.43-1.25.91-2.65,1.47-4.5,1.82-2.71.52-6.51.58-11.55.61-10.29,0-22.54.06-32.02-.05-4.19-.24-9.5.16-8.52-3.13,13.05-21.02,47.11-65.38,59.42-84.57,2.21-4.3-2.61-3.88-9.18-4.16-2.81-.04-6.19-.03-9.83-.03-10.27.17-20.99-.43-31.12.43-4.93.62-6.89,2.42-10.09,6.74-16.37,23.03-44.53,61.91-56.87,79.92-1.88,3.08-.67,4.15,2.54,4.5,2.46.29,5.21.3,7.83.33,10.59.16,24.57-.28,35.22.27,8.43.43,4.71,5.28,1.75,9.88-4.55,6.64-12.42,17.4-17.35,24.48-2.64,4.24-8.45,10.62.63,11.09,10.7.62,25.5.09,36.2.3,5.84.25,10.54-.03,9.99,3.64-.5,2.18-2.06,4.39-3.36,6.41-5.11,7.57-13.59,18.87-18.8,26.73-6.07,8.8.18,8.38,7.66,8.64,10.63,0,24.75.12,35.62-.03,7.02-.21,9.29-.25,12.52-5.13,18.43-26.9,104.01-143.7,125.35-176.65-.48-1.08-1.84-1.12-3.26-1.3-2.64-.2-5.55-.24-8.37-.25-7.87-.02-19.91-.01-28.63,0-4.81.11-10.07-.25-14.58,1.13l-.08.03Z"/>
      <path class="cls-1" d="M792.11,1.21c-3.54,1.24-5.49,4.34-7.73,7.33-11.89,16.57-40.74,57.16-53.99,75.58-1.52,2.05-3.02,4.06-4.89,5.43-1.25.91-2.65,1.47-4.5,1.82-2.71.52-6.51.58-11.55.61-10.29,0-22.54.06-32.02-.05-4.19-.24-9.5.16-8.52-3.13,13.05-21.02,47.11-65.38,59.42-84.57,2.21-4.3-2.61-3.88-9.18-4.16-2.81-.04-6.19-.03-9.83-.03-10.27.17-20.99-.43-31.12.43-4.93.62-6.89,2.42-10.09,6.74-16.37,23.03-44.53,61.91-56.87,79.92-1.88,3.08-.67,4.15,2.54,4.5,2.46.29,5.21.3,7.83.33,10.59.16,24.57-.28,35.22.27,8.43.43,4.71,5.28,1.75,9.88-4.55,6.64-12.42,17.4-17.35,24.48-2.64,4.24-8.45,10.62.63,11.09,10.7.62,25.5.09,36.2.3,5.84.25,10.54-.03,9.99,3.64-.5,2.18-2.06,4.39-3.36,6.41-5.11,7.57-13.59,18.87-18.8,26.73-6.07,8.8.18,8.38,7.66,8.64,10.63,0,24.75.12,35.62-.03,7.02-.21,9.29-.25,12.52-5.13,18.43-26.9,104.01-143.7,125.35-176.65-.48-1.08-1.84-1.12-3.26-1.3-2.64-.2-5.55-.24-8.37-.25-7.87-.02-19.91-.01-28.63,0-4.81.11-10.07-.25-14.58,1.13l-.08.03Z"/>
      <path class="cls-1" d="M1063.31.88c-1.27-.54-3.98-.69-8.1-.75-7.11-.05-15.75-.04-23.2-.04-20.67,0-40.33-.06-60.89-.05-17.85,0-33.55,0-51.08,0-5.22,0-11.1-.03-15.95.06-4.61.11-8.03.46-10.8,1.7-4.61,2.1-7.52,6.57-10.56,10.61-4.9,6.82-11.06,15.47-15.54,21.82-1.75,2.79-4.52,5.85-4.57,9.08.54,3.49,10.63,2.46,14.75,2.7,21.99,0,43.65,0,65.49,0,5.05,0,10.73-.01,15.57.01,8.04.08,14.79.17,10.89,7.64-3.26,6.36-10.18,13.19-18.08,13.78-10.76.96-23.39.25-34.46.46-14.83,0-29.07,0-44.12,0-5.79.02-12.55-.06-17.87.08-4.54.15-7.85.57-10.57,1.96-2.73,1.37-5,3.76-7.72,7.31-3.21,4.24-7.04,9.74-10.39,14.42-7.49,10.53-14.47,20.29-21.82,30.62-8.79,12.33-17.95,25.2-26.76,37.54-3.26,4.57-6.26,8.78-8.67,12.17-6.53,9.16-7.67,11.21,3.38,11.37,26.56.16,52.89.02,79.49.07,5.05-.01,10.04.06,14.92-.12,6.22-.16,11.02-1.48,14.98-6.36,2.29-2.63,4.26-5.43,6.38-8.37,4.54-6.32,9.78-13.81,14.27-19.95,6.58-9.21,10.24-11.06,21.47-11.08,9.8-.1,21.9,0,31.65-.06,3.86-.03,9.52-.13,11.63-.94,3.18-.98,4.68-3.68,6.62-6.27,16.12-22.7,63.71-89.34,87.07-122.18,2.92-4.18,4.76-6.33,2.64-7.22l-.05-.02ZM852.89,134.86c-.07-2.78,3.06-6.49,5-9.12,2.17-2.74,4.5-5.51,7.2-7.69,6.44-5.67,18.16-3.86,27.1-4.18,7.82,0,16.8-.02,24.34.02,3.94.04,6.96.19,8.6.88,4.76,1.86-2.78,9.87-4.63,12.47-8.04,10.21-13.53,10.36-26.53,10.23-8.93,0-18.7,0-27.53,0-6.41-.19-12.8.54-13.54-2.54v-.07Z"/>
      <path class="cls-1" d="M1032.43,203.3c-1.27-.54-3.98-.69-8.1-.75-7.11-.05-15.75-.04-23.2-.04-20.67,0-40.33-.06-60.89-.05-17.85,0-33.55,0-51.08,0-5.22,0-11.1-.03-15.95.06-4.61.11-8.03.46-10.8,1.7-4.61,2.1-7.52,6.57-10.56,10.61-4.9,6.82-11.06,15.47-15.54,21.82-1.75,2.79-4.52,5.85-4.57,9.08.54,3.49,10.63,2.46,14.75,2.7,21.99,0,43.65,0,65.49,0,5.05,0,10.73-.01,15.57.01,8.04.08,14.79.17,10.89,7.64-3.26,6.36-10.18,13.19-18.08,13.78-10.76.96-23.39.25-34.46.46-14.82,0-29.06,0-44.12,0-5.79.02-12.55-.06-17.87.08-4.54.15-7.85.57-10.57,1.96-2.73,1.37-5,3.76-7.72,7.31-3.21,4.24-7.04,9.74-10.39,14.42-7.49,10.53-14.47,20.29-21.82,30.62-8.79,12.33-17.95,25.2-26.76,37.54-3.26,4.57-6.26,8.78-8.67,12.17-6.53,9.16-7.67,11.21,3.38,11.37,26.56.16,52.89.02,79.49.07,5.05-.01,10.04.06,14.92-.12,6.22-.16,11.02-1.48,14.98-6.36,2.29-2.63,4.26-5.43,6.38-8.37,4.54-6.32,9.78-13.81,14.27-19.95,6.58-9.21,10.24-11.06,21.47-11.08,9.8-.1,21.9,0,31.65-.06,3.86-.03,9.52-.13,11.63-.94,3.18-.98,4.68-3.68,6.62-6.27,16.12-22.7,63.71-89.34,87.07-122.18,2.92-4.18,4.76-6.33,2.64-7.22l-.05-.02ZM822.01,337.29c-.07-2.78,3.06-6.49,5-9.12,2.17-2.74,4.5-5.51,7.2-7.69,6.44-5.67,18.16-3.86,27.1-4.18,7.82,0,16.8-.02,24.34.02,3.94.04,6.95.19,8.6.88,4.76,1.86-2.78,9.87-4.63,12.47-8.04,10.21-13.53,10.36-26.53,10.23-8.93,0-18.7,0-27.53,0-6.41-.19-12.8.54-13.54-2.54v-.07Z"/>
    </g>
    <path class="cls-1" d="M183.99,146.01c.06-.84-5.58-.68-8.47-.68-11.38.01-25.24,0-36.96,0-2.87,0-5.62,0-8.34,0-4.25.04-5.36.33-7.56,3.23-1.16,1.53-2.22,3.05-3.39,4.7-7.36,10.37-15.79,22.24-22.99,32.38-4.44,6.41-4.66,6-12.45,6.01-7.32,0-16.58,0-24.56,0-6.57,0-13,0-19.39,0-4.27-.04-7.35-.21-9.52,3.26-6.41,8.84-12.91,18.17-19.31,27.12-2.56,3.61-4.95,6.97-6.86,9.66-2.78,3.98-4.58,6.19-4.12,7.03.37.79,2.66.7,6.65.72,4.45.01,8.78,0,14.3,0,10.82,0,22.06.02,32.8,0,5.64.31,6.7-1.96,9.48-5.86,3.64-5.12,7.31-10.3,11.04-15.55,4.37-6.16,9.42-13.26,13.42-18.9,4.44-6.41,4.66-6,12.45-6.01,13,0,28.14,0,41.41,0,1.59,0,3.06,0,4.52-.01,4.25-.04,5.35-.36,7.53-3.25,1.89-2.54,3.66-5.1,5.58-7.78,6.5-9.14,14.15-19.94,20.47-28.82,2.85-4.08,4.71-6.35,4.29-7.2l-.02-.04Z"/>
  </g>
</svg>