<svg xmlns="http://www.w3.org/2000/svg" viewBox="0 0 280.57 184.77"><g id="Layer_2" data-name="Layer 2"><g id="Layer_1-2" data-name="Layer 1"><polygon points="57.65 35.23 17.08 35.23 17.08 0 0 0 0 87.54 17.08 87.54 17.08 52.31 57.65 52.31 57.65 87.54 74.73 87.54 74.73 0 57.65 0 57.65 35.23"/><rect x="88.58" width="17.08" height="87.54"/><polygon points="177.16 0 158.56 28.24 139.96 0 119.51 0 148.34 43.77 119.51 87.54 139.96 87.54 197.61 0 177.16 0"/><polygon points="240.62 0 230.4 0 230.4 0 230.4 0 220.17 0 162.52 87.54 172.75 87.54 182.97 87.54 230.4 15.53 266.57 70.46 222.92 70.46 211.68 87.54 277.82 87.54 280.57 87.54 280.57 87.54 280.57 60.66 240.62 0"/><polygon points="17.08 97.23 0 97.23 0 184.77 1.01 184.77 17.08 184.77 42.58 184.77 53.83 167.69 17.08 167.69 17.08 97.23"/><polygon points="115.3 97.23 96.7 125.48 78.1 97.23 57.65 97.23 86.47 141 57.65 184.77 78.1 184.77 135.75 97.23 115.3 97.23"/><polygon points="240.62 97.23 230.4 97.23 230.4 97.23 230.4 97.23 220.17 97.23 180.96 156.76 191.18 156.76 201.41 156.76 230.39 112.76 266.57 167.69 222.92 167.69 211.68 184.77 277.82 184.77 280.57 184.77 280.57 184.77 280.57 157.9 240.62 97.23"/><polygon points="156.64 97.23 139.56 97.23 139.56 184.77 140.57 184.77 156.64 184.77 182.15 184.77 193.39 167.69 156.64 167.69 156.64 97.23"/></g></g></svg>