<?xml version="1.0" encoding="utf-8"?>
<!-- Generator: Adobe Illustrator 25.0.1, SVG Export Plug-In . SVG Version: 6.00 Build 0)  -->
<svg version="1.1" id="Layer_1" xmlns="http://www.w3.org/2000/svg" xmlns:xlink="http://www.w3.org/1999/xlink" x="0px" y="0px"
	 viewBox="0 0 103 79" style="enable-background:new 0 0 103 79;" xml:space="preserve">
<style type="text/css">
	.st0{fill:#964091;}
</style>
<g>
	<path class="st0" d="M66.3,42.3c0,0-0.1-0.1-0.1-0.1c-0.1-0.1-0.1-0.2-0.2-0.2c0-0.1-0.1-0.1-0.1-0.1c-0.1-0.1-0.1-0.1-0.2-0.2
		c-0.1-0.1-0.1-0.1-0.2-0.2c0,0-0.1-0.1-0.1-0.1c0,0,0,0,0,0c-0.1,0-0.2-0.1-0.3-0.1c0,0-0.1,0-0.1-0.1c-0.1,0-0.3-0.1-0.4-0.1
		c-0.1,0-0.1,0-0.2,0c-0.3,0-0.5,0-0.8,0.1c-0.1,0-0.2,0.1-0.3,0.1c0,0,0,0,0,0c0,0-0.1,0-0.1,0.1c-0.1,0.1-0.2,0.1-0.3,0.2
		c-0.1,0-0.1,0.1-0.1,0.1c-0.1,0.1-0.1,0.1-0.2,0.2c-0.1,0.1-0.1,0.2-0.2,0.2c0,0-0.1,0.1-0.1,0.1L58.2,50c-0.6,1.1-0.2,2.5,0.9,3
		c0.3,0.2,0.7,0.3,1.1,0.3c0.8,0,1.6-0.4,2-1.2l2.2-4.1l2.2,4.1c0.4,0.8,1.2,1.2,2,1.2c0.4,0,0.7-0.1,1.1-0.3c1.1-0.6,1.5-2,0.9-3
		L66.3,42.3z"/>
	<path class="st0" d="M40.6,42.3c0,0-0.1-0.1-0.1-0.1c-0.1-0.1-0.1-0.2-0.2-0.2c0-0.1-0.1-0.1-0.2-0.2c-0.1-0.1-0.1-0.1-0.2-0.2
		c-0.1-0.1-0.2-0.1-0.2-0.2c0,0-0.1-0.1-0.1-0.1c0,0,0,0,0,0c-0.1-0.1-0.2-0.1-0.3-0.1c0,0-0.1,0-0.1,0c-0.1,0-0.3-0.1-0.4-0.1
		c0,0-0.1,0-0.1,0c-0.3,0-0.6,0-0.9,0.1c-0.1,0-0.2,0.1-0.3,0.1c0,0,0,0,0,0c0,0-0.1,0.1-0.1,0.1c-0.1,0.1-0.2,0.1-0.2,0.2
		c-0.1,0-0.1,0.1-0.2,0.2c-0.1,0.1-0.1,0.1-0.2,0.2c-0.1,0.1-0.1,0.2-0.2,0.2c0,0-0.1,0.1-0.1,0.1L32.5,50c-0.6,1.1-0.2,2.5,0.9,3
		c0.3,0.2,0.7,0.3,1.1,0.3c0.8,0,1.6-0.4,2-1.2l2.2-4.1l2.2,4.1c0.4,0.8,1.2,1.2,2,1.2c0.4,0,0.7-0.1,1.1-0.3c1.1-0.6,1.5-2,0.9-3
		L40.6,42.3z"/>
	<path class="st0" d="M101.1,55.6c1.1,0,1.9-0.9,1.9-1.9s-0.9-1.9-1.9-1.9H84.6v-3.9h16.5c1.1,0,1.9-0.9,1.9-1.9s-0.9-1.9-1.9-1.9
		H84.6V17.4c0,0,0-0.1,0-0.1c0-0.1,0-0.2,0-0.2c0-0.1,0-0.1,0-0.2c0-0.1,0-0.1-0.1-0.2c0-0.1-0.1-0.2-0.1-0.2c0,0,0-0.1,0-0.1
		L76.1,1.2c0,0-0.1-0.1-0.1-0.1C76,1,75.9,0.9,75.9,0.8c0-0.1-0.1-0.1-0.2-0.2c-0.1-0.1-0.1-0.1-0.2-0.2c-0.1-0.1-0.2-0.1-0.3-0.2
		c0,0-0.1-0.1-0.1-0.1c0,0,0,0,0,0c-0.1-0.1-0.2-0.1-0.3-0.1c0,0,0,0-0.1,0C74.7,0,74.5,0,74.4,0c0,0-0.1,0-0.1,0
		c-0.1,0-0.3,0-0.4,0c-0.1,0-0.2,0-0.3,0.1c0,0-0.1,0-0.1,0c-0.1,0-0.2,0.1-0.3,0.1c0,0,0,0,0,0c0,0-0.1,0-0.1,0.1
		c-0.1,0.1-0.2,0.1-0.3,0.2c-0.1,0-0.1,0.1-0.1,0.1c-0.1,0.1-0.1,0.1-0.2,0.2c-0.1,0.1-0.1,0.2-0.2,0.2c0,0-0.1,0.1-0.1,0.1L63.1,18
		H51.5H39.9L30.8,1.2c0,0-0.1-0.1-0.1-0.1c-0.1-0.1-0.1-0.2-0.2-0.2c0-0.1-0.1-0.1-0.2-0.2c0,0-0.1-0.1-0.1-0.1
		c-0.1-0.1-0.2-0.1-0.3-0.2c0,0-0.1,0-0.1-0.1c0,0,0,0,0,0c-0.1-0.1-0.2-0.1-0.4-0.1c0,0,0,0-0.1,0C29.3,0,29.2,0,29.1,0
		c0,0-0.1,0-0.1,0c-0.3,0-0.6,0-0.9,0.1c-0.1,0-0.2,0.1-0.3,0.1c0,0,0,0,0,0c0,0-0.1,0.1-0.1,0.1c-0.1,0.1-0.2,0.1-0.2,0.2
		c-0.1,0-0.1,0.1-0.2,0.2c-0.1,0.1-0.1,0.1-0.2,0.2C27,0.9,27,1,26.9,1.1c0,0-0.1,0.1-0.1,0.1l-8.2,15.1c0,0,0,0.1,0,0.1
		c0,0.1-0.1,0.1-0.1,0.2c0,0.1,0,0.1-0.1,0.2c0,0.1,0,0.1,0,0.2c0,0.1,0,0.2,0,0.2c0,0,0,0.1,0,0.1V44H1.9C0.9,44,0,44.9,0,45.9
		s0.9,1.9,1.9,1.9h16.5v3.9H1.9c-1.1,0-1.9,0.9-1.9,1.9s0.9,1.9,1.9,1.9h16.5v3.9H1.9c-1.1,0-1.9,0.9-1.9,1.9s0.9,1.9,1.9,1.9h17.6
		c0,0,0.1,0.1,0.1,0.1l30.8,15.4c0,0,0,0,0,0c0.1,0.1,0.3,0.1,0.4,0.2c0,0,0.1,0,0.1,0c0.1,0,0.3,0.1,0.4,0.1c0,0,0,0,0,0
		c0,0,0,0,0,0s0,0,0,0c0,0,0,0,0,0c0.2,0,0.3,0,0.4-0.1c0,0,0.1,0,0.1,0c0.1,0,0.3-0.1,0.4-0.2c0,0,0,0,0,0l30.8-15.4
		c0,0,0.1-0.1,0.1-0.1h17.6c1.1,0,1.9-0.9,1.9-1.9s-0.9-1.9-1.9-1.9H84.6v-3.9H101.1z M51.5,74.3L22.9,60v-42l5.9-11l7.7,14.3
		c0.4,0.7,1.2,1.2,2,1.2h12.9h12.9c0.8,0,1.6-0.5,2-1.2L74.1,7l5.9,11v42L51.5,74.3z"/>
</g>
</svg>
