<?xml version="1.0" encoding="utf-8"?>
<!-- Generator: Adobe Illustrator 24.1.2, SVG Export Plug-In . SVG Version: 6.00 Build 0)  -->
<svg version="1.1" id="Layer_2_1_" xmlns="http://www.w3.org/2000/svg" xmlns:xlink="http://www.w3.org/1999/xlink" x="0px" y="0px"
	 viewBox="0 0 209.1 251" style="enable-background:new 0 0 209.1 251;" xml:space="preserve">
<style type="text/css">
	.st0{fill:#FFFFFF;}
	.st1{fill:#FF004B;}
</style>
<g>
	<g>
		<path class="st0" d="M18.6,251v-7.6H7.8v7.6H3v-18.4h4.7v7.2h10.8v-7.2h4.7V251H18.6z"/>
		<path class="st0" d="M32.3,251v-18.4h4.7V251H32.3z"/>
		<path class="st0" d="M53.7,251v-7.7l-10-10.7h6.1l6.1,6.7h0.1l6.1-6.7h6.1L58.4,243v8H53.7z"/>
		<path class="st0" d="M88.1,251l-2-4H76l-1.9,4h-5.1l9.4-18.4H84l9.4,18.4H88.1z M81.1,236.6H81l-3.4,6.9h6.9L81.1,236.6z"/>
		<path class="st0" d="M114.3,251v-18.4h4.7v14.5h11.7v3.8H114.3z"/>
		<path class="st0" d="M141.2,251v-7.7l-10-10.7h6.1l6.1,6.7h0.1l6.1-6.7h6.1l-9.8,10.4v8H141.2z"/>
		<path class="st0" d="M162.4,251v-18.4h4.7v14.5h11.7v3.8H162.4z"/>
		<path class="st0" d="M203.7,251l-2-4h-10.2l-1.9,4h-5.1l9.4-18.4h5.7l9.4,18.4H203.7z M196.7,236.6h-0.1l-3.4,6.9h6.9L196.7,236.6
			z"/>
	</g>
	<g>
		<polygon class="st1" points="60.3,98.4 60.3,0 34.7,0 28.1,0 0,0 0,95.2 0,95.2 0,142.3 0,142.3 0,142.4 0,142.4 28,180.2 
			60.3,180.2 60.3,180.2 105,119.9 60.3,119.9 		"/>
		<polygon class="st1" points="182,59.4 165.3,59.4 149.7,59.4 149.6,59.6 105,119.8 105,119.9 105,119.9 149.7,119.9 149.7,157.5 
			149.7,180.2 174.4,180.2 181.9,180.2 210,180.2 210,142.7 210,142.6 210,119.8 210,97.3 210,97.2 		"/>
	</g>
</g>
</svg>
