<?xml version="1.0" encoding="UTF-8"?>
<svg id="Layer_2" data-name="Layer 2" xmlns="http://www.w3.org/2000/svg" viewBox="0 0 862.79 72">
  <defs>
    <style>
      .cls-1 {
        fill: #fff;
      }

      .cls-2 {
        fill: #ed1164;
      }
    </style>
  </defs>
  <g id="Layer_2-2" data-name="Layer 2">
    <g>
      <polygon class="cls-2" points="132.71 0 116.38 30.1 34.54 30.1 50.87 0 39.06 0 0 72 11.81 72 28.13 41.9 109.97 41.9 93.65 72 105.45 72 144.51 0 132.71 0"/>
      <polygon class="cls-2" points="126.21 72 138.02 72 177.08 0 165.27 0 126.21 72"/>
      <polygon class="cls-2" points="288.47 0 272.14 30.1 201.78 30.1 196.04 19.52 206.63 0 194.82 0 190.14 8.64 184.24 19.51 190.14 30.4 196.38 41.9 208.18 41.9 265.74 41.9 255.82 60.19 185.37 60.19 178.96 72 249.41 72 257.23 72 261.22 72 300.28 0 288.47 0"/>
      <path class="cls-2" d="M407.26,11.81l-.02-.04-6.39-11.77h-72.56l-6.41,11.81h73.57l5.88,10.84-4.04,7.45h-94.06l-5.85,10.79h0s-5.91,10.89-5.91,10.89l5.91,10.88h0s5.06,9.34,5.06,9.34h83.93l20.86-38.47,5.91-10.88-5.88-10.84Zm-26.29,48.38h0s-73.13,0-73.13,0h0s-4.56-8.41-4.56-8.41l5.36-9.88h82.25l-9.92,18.29Z"/>
    </g>
    <g>
      <polygon class="cls-1" points="442.92 50.64 470.39 0 458.59 0 437.02 39.76 431.12 50.65 437.02 61.53 442.39 71.43 442.39 72 442.7 72 454.51 72 511.65 72 518.06 60.19 448.1 60.19 442.92 50.64"/>
      <polygon class="cls-1" points="642.82 0 626.49 30.1 556.13 30.1 550.39 19.52 560.98 0 549.17 0 544.49 8.64 538.59 19.51 544.49 30.4 550.73 41.9 562.53 41.9 620.09 41.9 610.17 60.19 539.72 60.19 533.31 72 603.76 72 611.58 72 615.57 72 654.63 0 642.82 0"/>
      <polygon class="cls-1" points="655.39 50.64 682.86 0 671.06 0 649.49 39.76 643.59 50.65 649.49 61.53 654.86 71.43 654.86 72 655.17 72 666.98 72 724.12 72 730.53 60.19 660.57 60.19 655.39 50.64"/>
      <path class="cls-1" d="M856.91,11.81l-.02-.04-6.39-11.77h-72.56l-6.41,11.81h73.57l5.88,10.84-4.04,7.45h-94.06l-5.85,10.79h0s-5.91,10.89-5.91,10.89l5.91,10.88h0s5.06,9.34,5.06,9.34h83.93l20.86-38.47,5.91-10.88-5.88-10.84Zm-26.29,48.38h0s-73.13,0-73.13,0h0s-4.56-8.41-4.56-8.41l5.36-9.88h82.25l-9.92,18.29Z"/>
    </g>
  </g>
</svg>