<?xml version="1.0" encoding="UTF-8"?>
<svg id="Layer_2" data-name="Layer 2" xmlns="http://www.w3.org/2000/svg" viewBox="0 0 714.77 167.32">
  <defs>
    <style>
      .cls-1 {
        fill: #fff;
      }

      .cls-1, .cls-2 {
        stroke-width: 0px;
      }

      .cls-2 {
        fill: #ff004b;
      }
    </style>
  </defs>
  <g id="Layer_2-2" data-name="Layer 2">
    <g>
      <path class="cls-2" d="M178.47,56.97c-2.96-1.18-6.19-1.82-9.57-1.82h-29.9l-.12.17-41.44,56h-41.44V0h-29.9C11.69,0,0,11.69,0,26.11v115.11c0,14.42,11.69,26.1,26.1,26.1h29.9l41.44-56h41.56v56h29.9c14.41,0,26.1-11.68,26.1-26.1v-59.96c0-11.04-6.85-20.48-16.53-24.29Z"/>
      <g>
        <path class="cls-1" d="M279.03,104.68v-17.31h-24.74v17.31h-10.86v-42.04h10.86v16.39h24.74v-16.39h10.86v42.04h-10.86Z"/>
        <path class="cls-1" d="M310.38,104.68v-42.04h10.86v42.04h-10.86Z"/>
        <path class="cls-1" d="M359.26,104.68v-17.68l-22.83-24.37h14.06l14.06,15.35h.31l13.87-15.35h13.87l-22.47,23.82v18.23h-10.86Z"/>
        <path class="cls-1" d="M438.09,104.68l-4.54-9.15h-23.26l-4.42,9.15h-11.72l21.6-42.04h12.95l21.6,42.04h-12.21ZM422.01,71.78h-.25l-7.73,15.77h15.71l-7.73-15.77Z"/>
        <path class="cls-1" d="M497.89,104.68v-42.04h10.86v33.27h26.76v8.78h-37.63Z"/>
        <path class="cls-1" d="M559.44,104.68v-17.68l-22.83-24.37h14.06l14.06,15.35h.31l13.87-15.35h13.87l-22.47,23.82v18.23h-10.86Z"/>
        <path class="cls-1" d="M608.07,104.68v-42.04h10.86v33.27h26.76v8.78h-37.63Z"/>
        <path class="cls-1" d="M702.55,104.68l-4.54-9.15h-23.26l-4.42,9.15h-11.72l21.6-42.04h12.95l21.6,42.04h-12.21ZM686.47,71.78h-.25l-7.73,15.77h15.71l-7.73-15.77Z"/>
      </g>
    </g>
  </g>
</svg>